<svg width="1200" height="700" viewBox="0 0 1200 700" fill="none" xmlns="http://www.w3.org/2000/svg">
  <rect width="1200" height="700" rx="28" fill="#F7FAFF"/>
  <circle cx="1045" cy="110" r="90" fill="#DCEAFF"/>
  <circle cx="168" cy="560" r="120" fill="#FFF0D8"/>
  <text x="72" y="94" fill="#1C355B" font-family="Segoe UI, Arial, sans-serif" font-size="34" font-weight="700">Step 1. Package Sessions on Host A</text>
  <text x="72" y="130" fill="#617693" font-family="Segoe UI, Arial, sans-serif" font-size="18">Build a migration package from sessions, metadata, skills, and required directory skeletons.</text>

  <rect x="94" y="192" width="384" height="288" rx="30" fill="#FFFFFF"/>
  <rect x="134" y="248" width="200" height="132" rx="16" fill="#263F69"/>
  <rect x="152" y="266" width="164" height="96" rx="10" fill="#D9EBFF"/>
  <circle cx="380" cy="396" r="34" fill="#EAF7EE"/>
  <path d="M364 396H396" stroke="#2D9F68" stroke-width="8" stroke-linecap="round"/>
  <path d="M380 380V412" stroke="#2D9F68" stroke-width="8" stroke-linecap="round"/>
  <text x="134" y="430" fill="#243D66" font-family="Segoe UI, Arial, sans-serif" font-size="24" font-weight="700">Codex on Host A</text>
  <text x="134" y="458" fill="#657B97" font-family="Segoe UI, Arial, sans-serif" font-size="16">Select the sessions to migrate and collect</text>
  <text x="134" y="480" fill="#657B97" font-family="Segoe UI, Arial, sans-serif" font-size="16">their local supporting state.</text>

  <path d="M522 336H650" stroke="#4F76AE" stroke-width="10" stroke-linecap="round"/>
  <path d="M626 310L680 336L626 362" stroke="#4F76AE" stroke-width="10" stroke-linecap="round" stroke-linejoin="round"/>

  <rect x="696" y="204" width="396" height="280" rx="32" fill="#FFFFFF"/>
  <rect x="756" y="244" width="150" height="122" rx="20" fill="#F2B35D"/>
  <path d="M756 274H906" stroke="#9E6222" stroke-width="6"/>
  <rect x="936" y="250" width="108" height="40" rx="20" fill="#E8F3FF"/>
  <text x="959" y="276" fill="#446C9F" font-family="Segoe UI, Arial, sans-serif" font-size="18" font-weight="700">jsonl</text>
  <rect x="936" y="304" width="108" height="40" rx="20" fill="#ECF7EF"/>
  <text x="960" y="330" fill="#3D8B63" font-family="Segoe UI, Arial, sans-serif" font-size="18" font-weight="700">sqlite</text>
  <rect x="936" y="358" width="108" height="40" rx="20" fill="#FFF4E3"/>
  <text x="970" y="384" fill="#A96725" font-family="Segoe UI, Arial, sans-serif" font-size="18" font-weight="700">skills</text>
  <text x="756" y="426" fill="#243D66" font-family="Segoe UI, Arial, sans-serif" font-size="24" font-weight="700">Migration Package</text>
  <text x="756" y="454" fill="#657B97" font-family="Segoe UI, Arial, sans-serif" font-size="16">A structured bundle ready for transfer.</text>

  <rect x="94" y="544" width="998" height="88" rx="22" fill="#FFFFFF"/>
  <text x="128" y="592" fill="#26436C" font-family="Segoe UI, Arial, sans-serif" font-size="20" font-weight="700">Includes:</text>
  <text x="234" y="592" fill="#5B7290" font-family="Segoe UI, Arial, sans-serif" font-size="18">rollout jsonl files, threads metadata, session index, dynamic tools, user-defined skills, and empty directory skeletons</text>
</svg>
