<svg width="1200" height="700" viewBox="0 0 1200 700" fill="none" xmlns="http://www.w3.org/2000/svg">
  <rect width="1200" height="700" rx="28" fill="#FFFDF7"/>
  <circle cx="1028" cy="112" r="92" fill="#FFF1C7"/>
  <circle cx="170" cy="580" r="110" fill="#E7F0FF"/>
  <text x="72" y="94" fill="#1C355B" font-family="Segoe UI, Arial, sans-serif" font-size="34" font-weight="700">Step 5. Restore from Logged Migration States</text>
  <text x="72" y="130" fill="#617693" font-family="Segoe UI, Arial, sans-serif" font-size="18">Migration journals preserve checkpoints so Host B can return to any recorded state, not only the latest one.</text>

  <rect x="110" y="214" width="980" height="360" rx="32" fill="#FFFFFF"/>
  <path d="M188 394H1016" stroke="#C7D5EA" stroke-width="10" stroke-linecap="round"/>

  <circle cx="268" cy="394" r="34" fill="#DCEAFF"/>
  <text x="247" y="402" fill="#355D97" font-family="Segoe UI, Arial, sans-serif" font-size="22" font-weight="700">T0</text>
  <text x="214" y="454" fill="#607692" font-family="Segoe UI, Arial, sans-serif" font-size="18">Before import</text>

  <circle cx="486" cy="394" r="34" fill="#EAF7EE"/>
  <text x="465" y="402" fill="#2D6F4D" font-family="Segoe UI, Arial, sans-serif" font-size="22" font-weight="700">T1</text>
  <text x="430" y="454" fill="#607692" font-family="Segoe UI, Arial, sans-serif" font-size="18">Installed</text>

  <circle cx="704" cy="394" r="34" fill="#FFF2E2"/>
  <text x="683" y="402" fill="#A46A28" font-family="Segoe UI, Arial, sans-serif" font-size="22" font-weight="700">T2</text>
  <text x="636" y="454" fill="#607692" font-family="Segoe UI, Arial, sans-serif" font-size="18">Adjusted state</text>

  <circle cx="922" cy="394" r="34" fill="#FFE6E8"/>
  <text x="901" y="402" fill="#B3545D" font-family="Segoe UI, Arial, sans-serif" font-size="22" font-weight="700">T3</text>
  <text x="848" y="454" fill="#607692" font-family="Segoe UI, Arial, sans-serif" font-size="18">Rollback target</text>

  <rect x="170" y="248" width="190" height="74" rx="18" fill="#F3F7FF"/>
  <text x="196" y="294" fill="#3F6597" font-family="Segoe UI, Arial, sans-serif" font-size="20" font-weight="700">journal manifest</text>
  <rect x="420" y="248" width="174" height="74" rx="18" fill="#EEF9F2"/>
  <text x="450" y="294" fill="#2E7654" font-family="Segoe UI, Arial, sans-serif" font-size="20" font-weight="700">operations log</text>
  <rect x="652" y="248" width="160" height="74" rx="18" fill="#FFF5E7"/>
  <text x="690" y="294" fill="#AA6C28" font-family="Segoe UI, Arial, sans-serif" font-size="20" font-weight="700">backups</text>
  <rect x="866" y="248" width="150" height="74" rx="18" fill="#FFEDEF"/>
  <text x="898" y="294" fill="#B3545D" font-family="Segoe UI, Arial, sans-serif" font-size="20" font-weight="700">restore</text>

  <text x="186" y="518" fill="#20365A" font-family="Segoe UI, Arial, sans-serif" font-size="24" font-weight="700">Checkpoint-aware recovery</text>
  <text x="186" y="550" fill="#607692" font-family="Segoe UI, Arial, sans-serif" font-size="18">The workflow is not limited to one all-or-nothing undo. Logged states make migration auditable and selectively reversible.</text>
</svg>
